<svg id="Expand" enable-background="new 0 0 96 96" height="512" viewBox="0 0 96 96" width="512" xmlns="http://www.w3.org/2000/svg"><path d="m55 73h-3v-1.875c3.519-1.612 6-5.278 6-9.472v-5.653c0-2.757-2.243-5-5-5h-17c-.553 0-1 .448-1 1v2c0 1.86 1.276 3.428 3 3.874v.934l-1.929 4.821c-.123.308-.085.657.101.932.186.274.496.439.828.439h1.466c.879 2.797 2.939 5.012 5.534 6.153v1.847h-3c-6.065 0-11 4.935-11 11v9c0 .552.447 1 1 1h34c.553 0 1-.448 1-1v-9c0-6.065-4.935-11-11-11zm-18-19v-1h16c1.654 0 3 1.346 3 3v5c-1.654 0-3-1.346-3-3v-1c0-.552-.447-1-1-1h-13c-1.103 0-2-.897-2-2zm3.206 9.778c-.103-.455-.509-.778-.976-.778h-.754l1.452-3.628c.048-.119.072-.245.072-.372v-1h11c0 2.718 2.183 4.926 4.886 4.989-.611 3.875-3.818 6.912-7.68 7.009-3.751.104-7.159-2.52-8-6.22zm5.794 8.01c.652.134 1.321.212 2.005.212.084 0 .168-.001.252-.003.596-.015 1.177-.094 1.743-.215v2.218c0 .552.447 1 1 1h.447l-3.447 7.583-3.447-7.583h2.447c.553 0 1-.448 1-1s-.447-1-1-1h-1zm18 20.212h-32v-8c0-4.962 4.037-9 9-9h1.356l4.733 10.414c.163.357.518.586.911.586s.748-.229.91-.586l4.734-10.414h1.356c4.963 0 9 4.038 9 9z"/><path d="m48 30.918c.271 0 .532-.111.721-.307l8.839-9.188c2.195-2.282 2.195-5.996 0-8.278-1.076-1.118-2.509-1.734-4.035-1.734-.001 0-.001 0-.001 0-1.526 0-2.959.616-4.034 1.734l-1.49 1.549-1.489-1.548c-1.075-1.118-2.508-1.733-4.034-1.734 0 0 0 0-.001 0-1.526 0-2.959.616-4.035 1.734-2.195 2.282-2.195 5.996 0 8.278l8.839 9.188c.188.196.449.306.72.306zm-8.118-16.385c.695-.723 1.616-1.121 2.594-1.121h.001c.978 0 1.898.398 2.593 1.121l2.21 2.297c.377.392 1.064.392 1.441 0l2.21-2.297c1.39-1.445 3.798-1.445 5.188 0 1.46 1.518 1.46 3.987 0 5.504l-8.119 8.439-8.118-8.438c-1.46-1.518-1.46-3.987 0-5.505z"/><path d="m62 15c.553 0 1-.448 1-1v-4c0-.552-.447-1-1-1h-4c-.553 0-1 .448-1 1s.447 1 1 1h3v3c0 .552.447 1 1 1z"/><path d="m34 27c-.553 0-1 .448-1 1v4c0 .552.447 1 1 1h4c.553 0 1-.448 1-1s-.447-1-1-1h-3v-3c0-.552-.447-1-1-1z"/><path d="m89 22h-22c-2.757 0-5 2.243-5 5v11h-6c-.265 0-.52.105-.707.293l-7.293 7.293-7.293-7.293c-.188-.188-.442-.293-.707-.293h-12c-.401 0-.782-.082-1.131-.225-.013-.005-.027-.009-.041-.014-1.074-.456-1.828-1.52-1.828-2.761v-28c0-1.657 1.343-3 3-3h40c1.657 0 3 1.343 3 3v12c0 .552.447 1 1 1s1-.448 1-1v-12c0-2.761-2.239-5-5-5h-40c-2.761 0-5 2.239-5 5v28c0 .856.235 1.65.615 2.355-.955.502-1.615 1.493-1.615 2.645 0 1.654 1.346 3 3 3s3-1.346 3-3h2v8h-3c-.553 0-1 .448-1 1v5.586l-6.293-6.293c-.187-.188-.441-.293-.707-.293h-15v-16h16c.553 0 1-.448 1-1s-.447-1-1-1h-17c-.553 0-1 .448-1 1v18c0 .552.447 1 1 1h15.586l7.707 7.707c.191.191.447.293.707.293.129 0 .259-.025.383-.076.374-.155.617-.52.617-.924v-7h3c.553 0 1-.448 1-1v-9h7.586l7.707 7.707c.195.195.451.293.707.293s.512-.098.707-.293l7.707-7.707h5.586v5c0 2.757 2.243 5 5 5h1v6c0 .404.243.769.617.924.124.051.254.076.383.076.26 0 .516-.102.707-.293l6.707-6.707h12.586c2.757 0 5-2.243 5-5v-18c0-2.757-2.243-5-5-5zm-63 18c0 .551-.448 1-1 1s-1-.449-1-1 .448-1 1-1c.013 0 .018.002.03.002.254.189.525.352.813.49.082.128.157.287.157.508zm66 5c0 1.654-1.346 3-3 3h-13c-.266 0-.52.105-.707.293l-5.293 5.293v-4.586c0-.552-.447-1-1-1h-2c-1.654 0-3-1.346-3-3v-18c0-1.654 1.346-3 3-3h22c1.654 0 3 1.346 3 3z"/><path d="m78.895 30.553c-.34-.678-1.449-.678-1.789 0l-5 10c-.155.31-.139.678.044.973.182.294.503.474.85.474h10c.347 0 .668-.18.851-.474.183-.295.199-.663.044-.973zm-4.277 9.447 3.382-6.764 3.382 6.764z"/><path d="m6 40c0 1.654 1.346 3 3 3s3-1.346 3-3-1.346-3-3-3-3 1.346-3 3zm4 0c0 .551-.448 1-1 1s-1-.449-1-1 .448-1 1-1 1 .449 1 1z"/><path d="m14 40c0 1.654 1.346 3 3 3s3-1.346 3-3-1.346-3-3-3-3 1.346-3 3zm4 0c0 .551-.448 1-1 1s-1-.449-1-1 .448-1 1-1 1 .449 1 1z"/><path d="m32.924 65.617c-.154-.373-.52-.617-.924-.617h-6v-2c0-.552-.447-1-1-1h-22c-.553 0-1 .448-1 1v26c0 .552.447 1 1 1h22c.553 0 1-.448 1-1v-15.586l6.707-6.707c.286-.286.372-.716.217-1.09zm-8.631 6.676c-.188.187-.293.442-.293.707v15h-20v-24h20v2c0 .552.447 1 1 1h4.586z"/><path d="m93 61h-24c-.553 0-1 .448-1 1v2h-6c-.404 0-.77.244-.924.617-.155.374-.069.804.217 1.09l6.707 6.707v7.586c0 .552.447 1 1 1h24c.553 0 1-.448 1-1v-18c0-.552-.447-1-1-1zm-1 18h-22v-7c0-.265-.105-.52-.293-.707l-5.293-5.293h4.586c.553 0 1-.448 1-1v-2h22z"/><path d="m74 68h14c.553 0 1-.448 1-1s-.447-1-1-1h-14c-.553 0-1 .448-1 1s.447 1 1 1z"/><path d="m74 72h14c.553 0 1-.448 1-1s-.447-1-1-1h-14c-.553 0-1 .448-1 1s.447 1 1 1z"/><path d="m20 67h-12c-.553 0-1 .448-1 1s.447 1 1 1h12c.553 0 1-.448 1-1s-.447-1-1-1z"/><path d="m20 71h-12c-.553 0-1 .448-1 1s.447 1 1 1h12c.553 0 1-.448 1-1s-.447-1-1-1z"/><path d="m20 75h-12c-.553 0-1 .448-1 1s.447 1 1 1h12c.553 0 1-.448 1-1s-.447-1-1-1z"/><path d="m20 79h-12c-.553 0-1 .448-1 1s.447 1 1 1h12c.553 0 1-.448 1-1s-.447-1-1-1z"/><path d="m20 83h-12c-.553 0-1 .448-1 1s.447 1 1 1h12c.553 0 1-.448 1-1s-.447-1-1-1z"/><path d="m57 83h-4c-.553 0-1 .448-1 1v4c0 .379.214.725.553.895l2 1c.14.07.294.105.447.105s.307-.035.447-.105l2-1c.339-.17.553-.516.553-.895v-4c0-.552-.447-1-1-1zm-1 4.382-1 .5-1-.5v-2.382h2z"/><circle cx="80" cy="75" r="1"/><circle cx="84" cy="75" r="1"/><circle cx="88" cy="75" r="1"/><path d="m74 76h2c.553 0 1-.448 1-1s-.447-1-1-1h-2c-.553 0-1 .448-1 1s.447 1 1 1z"/></svg>